 <svg width="0" height="0">
    <symbol xmlns="http://www.w3.org/2000/svg" viewBox="0 0 24 24" id="moon">
        <path
            d="M12 11.807A9.002 9.002 0 0 1 10.049 2a9.942 9.942 0 0 0-5.12 2.735c-3.905 3.905-3.905 10.237 0 14.142 3.906 3.906 10.237 3.905 14.143 0a9.946 9.946 0 0 0 2.735-5.119A9.003 9.003 0 0 1 12 11.807z">
        </path>
    </symbol>
    <symbol xmlns="http://www.w3.org/2000/svg" viewBox="0 0 24 24" id="sun">
        <path
            d="M6.995 12c0 2.761 2.246 5.007 5.007 5.007s5.007-2.246 5.007-5.007-2.246-5.007-5.007-5.007S6.995 9.239 6.995 12zM11 19h2v3h-2zm0-17h2v3h-2zm-9 9h3v2H2zm17 0h3v2h-3zM5.637 19.778l-1.414-1.414 2.121-2.121 1.414 1.414zM16.242 6.344l2.122-2.122 1.414 1.414-2.122 2.122zM6.344 7.759 4.223 5.637l1.415-1.414 2.12 2.122zm13.434 10.605-1.414 1.414-2.122-2.122 1.414-1.414z">
        </path>
    </symbol>
    <symbol viewBox="0 0 14 14" xmlns="http://www.w3.org/2000/svg" id="logo">
        <path
            d="M1 6.85l1.92 1.92L5.8 5.89l-.66-.66-2.22 2.19-1.26-1.23zm0-3.9l1.92 1.92L5.8 1.99l-.66-.66-2.22 2.19-1.26-1.23zm0 7.8l1.92 1.92L5.8 9.79l-.66-.66-2.22 2.19-1.26-1.23z">
        </path>
        <path 
            d="M7 6.4h6v1.2H7zm0-3.9h6v1.2H7zm0 7.8h6v1.2H7z">
        </path>
    </symbol>
    <symbol viewBox="0 0 8 8" xmlns="http://www.w3.org/2000/svg" id="sort">
        <path d="M2 0v6h-2l2.5 2 2.5-2h-2v-6h-1zm2 0v1h2v-1h-2zm0 2v1h3v-1h-3zm0 2v1h4v-1h-4z" />
    </symbol>
 </svg>